<?xml version="1.0" encoding="UTF-8"?>
<!DOCTYPE svg PUBLIC "-//W3C//DTD SVG 1.1//EN" "http://www.w3.org/Graphics/SVG/1.1/DTD/svg11.dtd">
<!-- Creator: CorelDRAW X7 -->
<svg xmlns="http://www.w3.org/2000/svg" xml:space="preserve" width="1.13889in" height="1.39625in" version="1.1" style="shape-rendering:geometricPrecision; text-rendering:geometricPrecision; image-rendering:optimizeQuality; fill-rule:evenodd; clip-rule:evenodd"
viewBox="0 0 162 198"
 xmlns:xlink="http://www.w3.org/1999/xlink">
 <defs>
  <style type="text/css">
   <![CDATA[
    .fil0 {fill:#373435}
   ]]>
  </style>
 </defs>
 <g id="Layer_x0020_1">
  <metadata id="CorelCorpID_0Corel-Layer"/>
  <g id="_648047608016">
   <g id="__x0023_000000ff">
    <g>
     <path class="fil0" d="M45 0l50 0c4,3 8,7 11,11 7,0 13,0 20,0 6,-1 10,5 13,9 0,3 1,5 1,8 0,9 0,19 0,29 4,0 9,-1 12,1 4,2 7,5 8,8 1,2 1,3 2,4l0 86c-3,3 -5,5 -7,8 -9,9 -18,18 -28,27 -2,3 -5,5 -7,7 -17,0 -34,0 -50,0 -4,0 -7,-1 -11,-2 -3,-3 -6,-6 -8,-9 0,-3 0,-6 -1,-8 0,-2 0,-3 0,-5 -11,0 -23,0 -34,0 -8,1 -13,-5 -16,-11l0 -140c1,-1 1,-2 1,-3 2,-4 6,-7 9,-9 8,-2 16,-1 24,-1 4,-4 7,-8 11,-10l0 0zm-25 28c-1,0 -1,1 -2,2 0,41 0,83 0,124 1,1 1,2 2,3 11,0 21,0 31,0 0,-30 0,-60 0,-90 2,-4 6,-8 11,-10 20,0 40,0 60,0 0,-9 0,-18 0,-27 -1,-1 -1,-2 -2,-2 -5,0 -10,0 -14,0 -4,3 -7,7 -11,10 -1,1 -3,0 -4,0 -15,0 -30,0 -45,0 -5,-2 -8,-7 -12,-10 -5,0 -9,0 -14,0l0 0zm45 43c0,37 0,75 0,112 18,0 35,0 53,0 0,-8 0,-17 0,-25 2,-1 3,-3 5,-4 8,-2 16,0 24,0 0,-28 0,-55 0,-83 -27,0 -55,0 -82,0l0 0zm59 90c0,8 0,16 0,25 9,-9 17,-17 25,-25 -8,-1 -17,0 -25,0z"/>
    </g>
    <path class="fil0" d="M123 100c1,-2 3,-1 4,-2 0,1 0,2 0,2 2,1 4,2 5,4 0,0 0,1 0,2 -10,10 -19,19 -29,29 0,0 -1,0 -1,0 -6,-6 -11,-12 -17,-17 0,-1 0,-2 0,-3 2,-2 3,-4 5,-6 1,0 2,0 2,0 3,4 7,7 10,10 0,0 1,0 1,0 7,-6 13,-13 20,-19z"/>
   </g>
  </g>
 </g>
</svg>
